<?xml version="1.0" encoding="UTF-8"?>
<svg width="24" height="24" viewBox="0 0 24 24" fill="none" xmlns="http://www.w3.org/2000/svg">
  <path d="M12 2C6.49 2 2 6.49 2 12C2 17.51 6.49 22 12 22C12.55 22 13 21.55 13 21V20H12C10.34 20 9 18.66 9 17C9 15.34 10.34 14 12 14H13V13C13 12.45 13.45 12 14 12C14.55 12 15 12.45 15 13V14H16C17.66 14 19 15.34 19 17C19 18.66 17.66 20 16 20H15V21C15 21.55 15.45 22 16 22C19.87 22 23 18.87 23 15C23 10.51 17.51 2 12 2ZM6.5 10C5.67 10 5 9.33 5 8.5C5 7.67 5.67 7 6.5 7C7.33 7 8 7.67 8 8.5C8 9.33 7.33 10 6.5 10ZM9.5 6C8.67 6 8 5.33 8 4.5C8 3.67 8.67 3 9.5 3C10.33 3 11 3.67 11 4.5C11 5.33 10.33 6 9.5 6ZM14.5 6C13.67 6 13 5.33 13 4.5C13 3.67 13.67 3 14.5 3C15.33 3 16 3.67 16 4.5C16 5.33 15.33 6 14.5 6ZM17.5 10C16.67 10 16 9.33 16 8.5C16 7.67 16.67 7 17.5 7C18.33 7 19 7.67 19 8.5C19 9.33 18.33 10 17.5 10Z" fill="black"/>
</svg>
